<?xml version="1.0" standalone="no"?>
<!DOCTYPE svg PUBLIC "-//W3C//DTD SVG 20010904//EN"
 "http://www.w3.org/TR/2001/REC-SVG-20010904/DTD/svg10.dtd">
<svg version="1.0" xmlns="http://www.w3.org/2000/svg"
 width="798.000000pt" height="798.000000pt" viewBox="0 0 798.000000 798.000000"
 preserveAspectRatio="xMidYMid meet">
<metadata>
Created by potrace 1.14, written by Peter Selinger 2001-2017
</metadata>
<g transform="translate(0.000000,798.000000) scale(0.100000,-0.100000)"
fill="#000000" stroke="none">
<path d="M3619 7966 c-2 -2 -31 -7 -64 -10 -69 -6 -98 -10 -250 -37 -129 -22
-138 -24 -305 -64 -112 -27 -369 -108 -425 -134 -11 -5 -54 -23 -95 -39 -41
-17 -96 -40 -123 -51 -26 -11 -48 -19 -50 -18 -1 1 -16 -8 -34 -21 -17 -12
-34 -22 -38 -22 -8 0 -114 -53 -180 -90 -80 -45 -180 -104 -185 -110 -3 -4
-21 -15 -40 -26 -19 -10 -39 -23 -45 -27 -5 -4 -57 -41 -114 -81 -57 -41 -117
-86 -133 -100 -17 -14 -33 -26 -37 -26 -3 0 -27 -20 -53 -43 -26 -23 -75 -67
-110 -97 -94 -83 -298 -289 -298 -302 0 -6 -3 -9 -6 -5 -4 3 -27 -20 -52 -51
-26 -31 -52 -63 -59 -70 -7 -8 -26 -30 -41 -50 -15 -20 -34 -44 -42 -53 -50
-58 -220 -304 -220 -319 0 -5 -4 -10 -10 -10 -5 0 -12 -11 -16 -25 -3 -14 -10
-25 -15 -25 -5 0 -9 -4 -9 -8 0 -5 -22 -47 -50 -93 -27 -46 -50 -89 -50 -95 0
-6 -7 -17 -15 -24 -8 -7 -13 -16 -10 -20 3 -5 2 -10 -2 -12 -7 -2 -44 -72 -48
-88 -1 -3 -20 -45 -43 -93 -23 -49 -42 -92 -42 -96 0 -4 -9 -26 -20 -49 -11
-22 -20 -47 -20 -55 0 -7 -4 -17 -9 -23 -11 -11 -83 -227 -107 -316 -1 -5 -3
-10 -4 -13 -1 -3 -3 -8 -4 -12 -1 -5 -15 -60 -30 -123 -15 -63 -30 -124 -32
-135 -2 -11 -8 -42 -14 -70 -5 -27 -12 -68 -16 -90 -3 -22 -7 -47 -9 -55 -2
-8 -7 -41 -10 -73 -4 -32 -8 -67 -10 -77 -19 -98 -27 -602 -12 -770 9 -111 18
-192 23 -220 2 -14 7 -45 10 -70 3 -25 9 -63 14 -85 5 -22 12 -56 15 -75 7
-38 24 -114 40 -180 3 -11 7 -28 9 -38 2 -9 10 -37 17 -62 7 -25 13 -50 15
-57 3 -19 54 -176 63 -198 12 -26 45 -119 46 -125 5 -50 245 -537 323 -655 15
-22 33 -52 41 -67 8 -16 18 -28 23 -28 4 0 8 -5 8 -10 0 -17 174 -258 260
-359 8 -10 33 -39 55 -65 46 -55 276 -289 350 -357 28 -25 100 -85 160 -133
61 -48 118 -95 129 -103 77 -62 443 -292 492 -309 11 -4 27 -14 37 -22 9 -8
17 -11 17 -6 0 5 4 5 8 -1 7 -10 79 -50 91 -50 3 -1 20 -8 36 -17 36 -19 244
-107 270 -114 6 -1 39 -14 74 -28 36 -14 71 -26 78 -26 7 0 21 -4 31 -10 18
-10 277 -85 322 -93 14 -3 68 -14 120 -25 52 -12 118 -24 145 -28 28 -3 52 -8
55 -9 3 -2 34 -6 69 -10 34 -4 72 -8 84 -11 59 -11 244 -19 447 -19 245 0 380
8 530 30 19 3 65 10 101 15 36 5 72 12 80 14 8 3 31 7 51 10 21 3 59 11 85 17
27 6 59 13 73 15 148 28 532 160 715 245 39 18 72 33 75 34 11 2 208 106 265
140 33 19 67 38 75 42 27 12 125 78 128 86 2 4 8 7 14 7 14 0 286 195 313 224
6 6 35 31 65 56 85 68 91 75 260 242 87 86 166 170 176 187 10 17 23 31 29 31
6 0 18 12 27 28 10 15 28 41 42 57 91 108 276 372 276 394 0 6 5 11 10 11 6 0
15 10 20 23 5 12 23 45 39 72 17 28 38 67 48 88 10 20 21 37 25 37 5 0 8 8 8
19 0 10 7 24 15 31 8 7 15 16 15 21 0 5 20 48 44 97 24 49 64 143 90 208 26
66 51 128 55 139 37 86 120 370 147 500 2 11 7 34 11 50 3 17 8 39 9 50 2 19
20 119 28 160 2 11 7 49 11 85 4 36 9 74 11 85 25 118 25 749 0 880 -2 11 -7
46 -10 77 -6 52 -17 121 -31 193 -8 43 -36 177 -41 198 -2 9 -6 25 -8 35 -31
131 -96 343 -128 422 -13 31 -22 54 -43 110 -45 121 -197 428 -277 560 -35 58
-70 116 -78 130 -8 14 -17 27 -20 30 -3 3 -25 34 -50 70 -24 36 -48 67 -52 68
-4 2 -8 10 -8 18 0 8 -4 14 -9 14 -5 0 -12 8 -15 18 -3 9 -22 34 -41 54 -19
20 -35 40 -35 43 0 26 -426 475 -450 475 -6 0 -8 5 -5 10 3 6 0 10 -7 10 -8 0
-21 8 -29 18 -21 23 -76 71 -121 104 -20 15 -42 33 -50 40 -46 44 -314 228
-385 265 -18 9 -33 20 -33 25 0 4 -4 8 -9 8 -5 0 -38 16 -73 36 -69 39 -240
128 -248 129 -3 0 -30 13 -61 28 -101 48 -362 149 -419 162 -3 0 -36 11 -75
23 -93 29 -243 69 -280 75 -16 3 -50 10 -75 16 -25 5 -61 12 -80 16 -19 3 -46
7 -60 10 -31 6 -91 14 -150 21 -25 2 -56 8 -70 11 -27 7 -804 15 -811 9z"/>
</g>
</svg>
